<?xml version="1.0" standalone="no"?>
<!DOCTYPE svg PUBLIC "-//W3C//DTD SVG 1.1//EN" "http://www.w3.org/Graphics/SVG/1.1/DTD/svg11.dtd" >
<svg xmlns="http://www.w3.org/2000/svg" xmlns:xlink="http://www.w3.org/1999/xlink" version="1.1">
<metadata></metadata>
<defs>
<font id="sofia_prosemibold_italic" horiz-adv-x="1161" >
<font-face units-per-em="2048" ascent="1536" descent="-512" />
<missing-glyph horiz-adv-x="507" />
<glyph unicode="&#xfb01;" horiz-adv-x="1347" d="M180 756l35 200h182l15 76q39 214 163 329.5t324 115.5h105l-43 -240h-105q-152 0 -192 -205l-15 -76h727l-168 -956h-247l133 756h-480l-133 -756h-252l133 756h-182zM1157 1327q12 63 67.5 106.5t123.5 43.5q66 0 103 -43.5t26 -106.5q-10 -65 -64 -108t-121 -43 t-106 43t-29 108z" />
<glyph unicode="&#xfb02;" horiz-adv-x="1361" d="M180 756l35 200h182l15 76q39 214 163 329.5t324 115.5h584l-262 -1477h-250l219 1237h-334q-152 0 -192 -205l-15 -76h203l-35 -200h-203l-133 -756h-252l133 756h-182z" />
<glyph unicode="&#xfb03;" horiz-adv-x="2131" d="M180 756l35 200h182l15 76q39 214 163 329.5t324 115.5h105l-43 -240h-105q-152 0 -192 -205l-15 -76h533l14 76q39 214 163 329.5t324 115.5h105l-43 -240h-105q-152 0 -192 -205l-14 -76h727l-168 -956h-248l133 756h-479l-133 -756h-252l133 756h-533l-133 -756h-252 l133 756h-182zM1942 1327q12 63 67 106.5t123 43.5q66 0 103 -43.5t26 -106.5q-10 -65 -63.5 -108t-120.5 -43t-106 43t-29 108z" />
<glyph unicode="&#xfb04;" horiz-adv-x="2146" d="M180 756l35 200h182l15 76q39 214 163 329.5t324 115.5h105l-43 -240h-105q-152 0 -192 -205l-15 -76h533l14 76q39 214 163 329.5t324 115.5h584l-262 -1477h-250l219 1237h-334q-152 0 -192 -205l-14 -76h202l-34 -200h-203l-133 -756h-252l133 756h-533l-133 -756 h-252l133 756h-182z" />
<glyph horiz-adv-x="0" />
<glyph horiz-adv-x="682" />
<glyph unicode=" "  horiz-adv-x="507" />
<glyph unicode="&#x09;" horiz-adv-x="507" />
<glyph unicode="&#xa0;" horiz-adv-x="507" />
<glyph unicode="!" horiz-adv-x="573" d="M147 135q12 67 67 111.5t122 44.5q68 0 107.5 -44.5t27.5 -111.5t-67 -111t-123 -44q-67 0 -106.5 44t-27.5 111zM252 412l137 999h293l-215 -999h-215z" />
<glyph unicode="&#x22;" horiz-adv-x="722" d="M295 809l86 602h182l-127 -602h-141zM569 809l86 602h183l-127 -602h-142z" />
<glyph unicode="#" horiz-adv-x="1431" d="M131 338l82 184h225l162 348h-221l84 185h225l166 356h209l-164 -356h211l166 356h209l-166 -356h227l-86 -185h-229l-164 -348h227l-82 -184h-227l-166 -338h-207l162 338h-211l-164 -338h-204l161 338h-225zM645 522h211l166 348h-213z" />
<glyph unicode="$" horiz-adv-x="1165" d="M156 412h262q-8 -83 46.5 -141t164.5 -58q103 0 172.5 48t87.5 122q34 140 -158 192l-168 46q-338 102 -284 393q27 166 166 278.5t319 130.5l43 215h141l-41 -217q169 -21 256.5 -133.5t55.5 -286.5h-263q17 85 -30.5 135t-145.5 50q-90 0 -159 -46t-82 -120 q-7 -15 -2.5 -37.5t15 -44.5t43.5 -44t83 -36l166 -51q87 -26 150.5 -63t99 -79t54.5 -90.5t17 -97.5t-14 -100q-40 -170 -178.5 -273.5t-319.5 -121.5l-41 -232h-141l41 232q-189 20 -286.5 141.5t-69.5 288.5z" />
<glyph unicode="%" horiz-adv-x="1409" d="M266 1090q20 116 112.5 195t207.5 79q114 0 180.5 -79.5t46.5 -194.5q-22 -116 -115.5 -194.5t-208.5 -78.5q-116 0 -179.5 78t-43.5 195zM293 0l903 1354h139l-903 -1354h-139zM424 1090q-10 -49 17 -82t77 -33q48 0 87.5 33t49.5 82q8 47 -20.5 81.5t-75.5 34.5 q-49 0 -88 -34t-47 -82zM831 252q20 116 112.5 195t207.5 79q114 0 180.5 -79.5t46.5 -194.5q-22 -116 -115 -194t-208 -78q-116 0 -180 77.5t-44 194.5zM989 252q-10 -49 17 -82t77 -33q48 0 88 33t50 82q8 47 -21 82t-76 35q-49 0 -88 -34.5t-47 -82.5z" />
<glyph unicode="&#x26;" horiz-adv-x="1396" d="M178 406q23 130 97 223.5t192 140.5q-62 33 -90.5 104.5t-11.5 167.5q25 152 156.5 262t303.5 117q122 4 214 -47t137 -141l-234 -129q-41 76 -129 76q-74 0 -124.5 -45.5t-61.5 -106.5q0 -13 -1.5 -33t7 -44.5t21.5 -45.5t42.5 -35t69.5 -14h248l33 168h233l-33 -168 h170l-35 -203h-170l-41 -233q-15 -78 -8.5 -127t45.5 -70.5t123 -21.5l-39 -221q-158 2 -241 38t-101 129q-57 -76 -165.5 -121.5t-209.5 -45.5q-204 0 -316.5 121t-80.5 305zM444 420q-6 -92 47 -144.5t156 -52.5q67 0 129.5 30t112 97.5t65.5 161.5l25 141h-256 q-65 0 -119.5 -23.5t-87.5 -59.5t-51.5 -75t-20.5 -75z" />
<glyph unicode="'" horiz-adv-x="448" d="M295 809l86 602h182l-127 -602h-141z" />
<glyph unicode="(" horiz-adv-x="774" d="M144 82q-16 174 24 387q36 209 114 388t182 304t231.5 195.5t260.5 70.5l-36 -208q-104 0 -215 -100.5t-198 -274.5t-122 -375q-33 -210 -10.5 -374t97.5 -264.5t181 -100.5l-35 -207q-133 0 -236 68t-162.5 192.5t-75.5 298.5z" />
<glyph unicode=")" horiz-adv-x="774" d="M-12 -477l30 207q104 0 214.5 98t198 269.5t122.5 371.5q28 155 18.5 291t-45 238t-99 161.5t-142.5 59.5l37 208q133 0 235.5 -70t161.5 -196.5t75 -302.5t-24 -389q-51 -279 -169 -495t-277.5 -333.5t-335.5 -117.5z" />
<glyph unicode="*" horiz-adv-x="970" d="M283 1063l90 176l235 -98l31 270h188l-65 -268l272 96l25 -176l-271 -70l132 -215l-166 -104l-107 223l-196 -227l-127 110l208 209z" />
<glyph unicode="+" horiz-adv-x="1046" d="M178 436l33 199h321l60 319h199l-60 -319h322l-33 -199h-322l-57 -323h-199l58 323h-322z" />
<glyph unicode="," horiz-adv-x="555" d="M-25 -209q84 98 149.5 229.5t88.5 272.5h258q-21 -106 -62.5 -202t-92 -165t-97 -116.5t-92.5 -79.5z" />
<glyph unicode="-" horiz-adv-x="976" d="M197 391l36 209h719l-37 -209h-718z" />
<glyph unicode="." horiz-adv-x="557" d="M139 135q12 67 67 111.5t122 44.5q68 0 107.5 -44.5t27.5 -111.5t-67.5 -111t-123.5 -44q-67 0 -106 44t-27 111z" />
<glyph unicode="/" horiz-adv-x="1026" d="M61 0l932 1411h219l-931 -1411h-220z" />
<glyph unicode="0" horiz-adv-x="1234" d="M242 670q23 122 54.5 221t82.5 189t117 151t159 97t207 36q499 0 369 -694q-23 -122 -54 -219.5t-81.5 -188t-115.5 -151t-157.5 -96t-206.5 -35.5q-504 0 -374 690zM494 670q-78 -445 168 -445q241 0 319 445q78 448 -162 448q-247 0 -325 -448z" />
<glyph unicode="1" horiz-adv-x="741" d="M242 920l39 225l514 211l-238 -1356h-252l176 1010z" />
<glyph unicode="2" horiz-adv-x="1107" d="M113 0l20 129l664 655q93 89 112 177q12 68 -33.5 113.5t-130.5 45.5q-82 0 -148.5 -54t-92.5 -140l-228 43q61 182 202.5 288.5t320.5 106.5q180 0 286 -114t74 -289q-31 -174 -203 -343l-401 -378h453l-39 -240h-856z" />
<glyph unicode="3" horiz-adv-x="1118" d="M121 264l237 111q21 -63 74 -106.5t119 -43.5q96 0 169.5 56t90.5 143q4 9 2 25.5t-4.5 36t-15.5 40t-31.5 36.5t-52.5 25.5t-78 8.5h-144l43 223h144q44 0 79.5 17.5t54.5 43.5t29 48t13 39q16 131 -90 149q-123 23 -223 -80l-175 129q75 96 195.5 151t247.5 48 q168 -7 256 -115.5t63 -259.5q-13 -82 -70.5 -150.5t-142.5 -111.5q98 -41 143 -147.5t15 -217.5q-32 -120 -122.5 -210.5t-211.5 -134t-248 -35.5q-135 10 -232.5 86.5t-133.5 195.5z" />
<glyph unicode="4" horiz-adv-x="1226" d="M96 291l854 1048h244l-150 -829h179l-37 -219h-178l-52 -291h-249l51 291h-662zM498 510h297l84 467z" />
<glyph unicode="5" horiz-adv-x="1191" d="M137 262q7 3 114 64t120 67q30 -75 90.5 -120.5t134.5 -45.5q130 0 220 68t106 164q21 112 -41.5 171.5t-175.5 59.5q-181 0 -330 -135l-129 86l237 698h762l-43 -231h-561l-96 -274q47 34 119.5 52.5t142.5 18.5q93 0 167.5 -29t125 -84t70 -140.5t1.5 -192.5 q-37 -214 -208 -346.5t-412 -132.5q-140 0 -252 77t-162 205z" />
<glyph unicode="6" horiz-adv-x="1173" d="M207 444q9 95 25 183.5t44 183.5t64.5 175.5t90.5 153t118.5 122.5t151.5 77.5t188 24.5q63 -2 113 -14.5t99 -40.5t85.5 -79.5t58.5 -125.5l-248 -98q-43 122 -157 122q-70 0 -130 -34.5t-101.5 -93.5t-69 -132t-37.5 -155q33 57 116 104t183 47q80 0 149 -30.5 t117.5 -89t68 -142.5t-0.5 -192q-37 -191 -190.5 -312.5t-360.5 -117.5q-186 0 -293.5 128t-83.5 336zM475 430q-17 -85 32 -146t132 -61q84 0 153.5 57t86.5 144t-28.5 146.5t-131.5 60.5q-85 0 -156 -57.5t-88 -143.5z" />
<glyph unicode="7" horiz-adv-x="1107" d="M152 0l725 1104h-584l43 235h981l-879 -1339h-286z" />
<glyph unicode="8" horiz-adv-x="1196" d="M180 434q20 108 86.5 194.5t167.5 141.5q-81 94 -57 229q25 152 160.5 258.5t300.5 106.5q164 0 259 -106t70 -259q-23 -135 -141 -229q86 -55 122.5 -141t16.5 -195q-37 -189 -203.5 -321.5t-369.5 -132.5q-205 0 -324.5 132.5t-87.5 321.5zM430 442q-17 -93 44 -159 t161 -66q99 0 181 66t99 159q17 87 -39.5 154.5t-148.5 67.5h-37q-92 0 -167 -66.5t-93 -155.5zM618 991q-11 -62 23 -103.5t104 -41.5q69 0 116.5 42.5t58.5 102.5q11 56 -22.5 97.5t-100.5 41.5t-117.5 -41.5t-61.5 -97.5z" />
<glyph unicode="9" horiz-adv-x="1175" d="M164 240l252 98q35 -123 157 -123q91 0 164 60t114.5 152.5t55.5 203.5q-31 -58 -115.5 -105t-185.5 -47q-79 0 -146.5 31.5t-115 88t-67 144t-1.5 191.5q37 190 191 311t358 117q189 -5 293.5 -128.5t87.5 -334.5q-10 -95 -26 -183.5t-44 -184t-65 -175.5t-91 -152.5 t-118.5 -122t-151.5 -77t-188 -24.5q-63 2 -113.5 14.5t-100 40.5t-86.5 79.5t-58 125.5zM532 920q-19 -86 27 -145.5t131 -61.5q86 0 157.5 56.5t88.5 141.5q17 86 -32.5 147.5t-131.5 61.5q-84 0 -153.5 -57t-86.5 -143z" />
<glyph unicode=":" horiz-adv-x="581" d="M152 135q12 67 67.5 111.5t122.5 44.5t106 -44.5t27 -111.5t-66.5 -111t-121.5 -44t-107 44.5t-28 110.5zM274 821q12 67 67 111.5t122 44.5t107 -44.5t28 -111.5t-66.5 -111t-121.5 -44t-107.5 44.5t-28.5 110.5z" />
<glyph unicode=";" horiz-adv-x="595" d="M-12 -209q84 97 149 228.5t90 273.5h260q-21 -106 -62.5 -202t-92 -165t-97 -116.5t-92.5 -79.5zM295 821q12 67 66.5 111.5t121.5 44.5t107 -44.5t28 -111.5t-66.5 -111t-121.5 -44t-107 44.5t-28 110.5z" />
<glyph unicode="&#x3c;" horiz-adv-x="1286" d="M178 485l39 213l1102 394l-39 -215l-807 -285l707 -285l-39 -215z" />
<glyph unicode="=" horiz-adv-x="1228" d="M190 276l35 193h942l-34 -193h-943zM264 684l33 193h942l-33 -193h-942z" />
<glyph unicode="&#x3e;" horiz-adv-x="1286" d="M174 92l37 215l807 285l-707 285l39 215l965 -394l-39 -213z" />
<glyph unicode="?" horiz-adv-x="1005" d="M256 999q36 195 174 311.5t324 116.5q188 0 289 -108.5t69 -290.5q-29 -146 -124 -247.5t-228 -139.5q-69 -21 -103 -57t-47 -107l-14 -67h-244l6 67q14 76 38.5 132.5t49.5 92.5t78.5 71.5t91.5 54.5t122 58q16 7 24 11q83 33 100 133q10 65 -34 106.5t-119 41.5 t-133.5 -49.5t-71.5 -129.5h-248zM266 137q12 65 68 110.5t123 45.5t106 -45.5t27 -110.5q-12 -68 -67 -112.5t-122 -44.5t-107 44.5t-28 112.5z" />
<glyph unicode="@" horiz-adv-x="1980" d="M176.5 283.5q-12.5 114.5 11.5 238.5q32 184 130.5 350.5t237 287.5t315.5 192t360 71q185 0 343 -66t263 -179.5t151.5 -275t14.5 -343.5q-14 -77 -40.5 -155t-70.5 -158.5t-98.5 -141.5t-130 -100t-160.5 -39q-61 0 -110 15.5t-88.5 51.5t-51.5 94.5t2 145.5l48 260 q17 105 -42.5 176.5t-162.5 71.5t-188.5 -72t-102.5 -176q-20 -100 41 -171.5t162 -71.5q102 0 186 67l-31 -186q-90 -49 -186 -49q-171 0 -271.5 120t-68.5 291q29 175 172 295.5t315 120.5q171 0 269 -112q104 -113 80 -283l-54 -293q-20 -127 109 -127q65 0 119.5 42.5 t90 112t57.5 136t34 135.5q26 147 -11.5 277t-123.5 221t-214 143.5t-278 52.5q-147 0 -290 -58t-256 -156t-193 -233t-107 -284q-37 -197 27.5 -363t212.5 -262t346 -96h60l-31 -170h-60q-123 0 -233.5 31.5t-196.5 89t-153 138.5t-104 180t-49.5 213.5z" />
<glyph unicode="A" horiz-adv-x="1339" d="M0 0l776 1411h283l280 -1411h-276l-70 342h-526l-188 -342h-279zM596 571h352l-82 539z" />
<glyph unicode="B" horiz-adv-x="1298" d="M176 0l248 1411h553q187 -1 279 -103q69 -77 69 -195q0 -40 -8 -85q-15 -87 -73 -161.5t-163 -112.5q79 -20 131 -76q52 -57 68 -123q10 -38 9 -76q0 -28 -5 -55q-34 -179 -173.5 -301.5t-338.5 -122.5h-596zM479 233h320q82 0 140 58t71 137q3 19 3 37q-1 53 -29 99 q-38 60 -124 61h-313zM586 844h272q70 0 120 48t62 122q3 21 3 39q0 49 -24 81q-33 44 -110 44h-264z" />
<glyph unicode="C" horiz-adv-x="1419" d="M213 702q27 148 105.5 281.5t189.5 231t253.5 155t289.5 57.5q177 0 312 -73.5t208 -204.5l-238 -150q-49 83 -133 132t-192 49q-190 0 -343 -139.5t-190 -338.5q-10 -51 -10 -98q0 -134 79 -238q106 -138 296 -139q112 0 215 51t184 140l178 -152q-118 -134 -279.5 -210 t-342.5 -76q-147 0 -269 57.5t-199 154.5t-109 230q-17 73 -17 150q0 64 12 130z" />
<glyph unicode="D" horiz-adv-x="1462" d="M176 0l248 1411h551q197 0 327 -94q129 -93 175 -253q26 -89 26 -193q0 -80 -16 -169q-27 -150 -93 -278.5t-163 -222.5t-227 -147.5t-277 -53.5h-551zM477 240h289q180 0 302.5 131t156.5 331q12 61 12 117q0 33 -4 65q-11 86 -43 149t-98 100.5t-158 37.5h-289z" />
<glyph unicode="E" horiz-adv-x="1171" d="M176 0l248 1411h872l-41 -233h-612l-63 -367h536l-41 -231h-536l-62 -347h633l-41 -233h-893z" />
<glyph unicode="F" horiz-adv-x="1093" d="M176 0l248 1411h862l-41 -233h-600l-63 -367h475l-43 -233h-475l-101 -578h-262z" />
<glyph unicode="G" horiz-adv-x="1548" d="M213 702q27 147 106.5 281t192 231.5t256 155t291.5 57.5q152 0 275 -57.5t198 -157.5l-219 -168q-112 138 -297 138q-192 0 -348 -140t-193 -340q-9 -48 -9 -94q0 -76 26 -146q40 -111 134 -176t220 -65q95 0 186 35t159 103t87 155h-387l37 215h688 q-32 -190 -106.5 -334.5t-181.5 -234.5t-238.5 -135t-286.5 -45q-148 0 -271.5 57.5t-201.5 154.5t-110 230q-19 74 -19 152q0 63 12 128z" />
<glyph unicode="H" horiz-adv-x="1441" d="M176 0l248 1411h260l-102 -592h565l102 592h264l-247 -1411h-265l103 584h-565l-103 -584h-260z" />
<glyph unicode="I" horiz-adv-x="612" d="M176 0l248 1411h260l-248 -1411h-260z" />
<glyph unicode="J" horiz-adv-x="614" d="M-281 -446l68 237q29 -10 82 -15t78 -5q93 0 150.5 62t76.5 161l250 1417h264l-252 -1417q-17 -99 -56.5 -181.5t-103 -148.5t-159 -103.5t-213.5 -37.5q-63 0 -185 31z" />
<glyph unicode="K" horiz-adv-x="1224" d="M176 0l248 1411h264l-90 -514l469 514h307l-661 -700l540 -711h-342l-379 522l-92 -522h-264z" />
<glyph unicode="L" horiz-adv-x="1036" d="M176 0l248 1411h262l-207 -1178h545l-41 -233h-807z" />
<glyph unicode="M" horiz-adv-x="1882" d="M94 0l422 1411h221l283 -954l616 954h226l-76 -1411h-262l55 940l-506 -780h-209l-233 780l-275 -940h-262z" />
<glyph unicode="N" horiz-adv-x="1396" d="M176 0l248 1411h244l376 -917l162 917h262l-247 -1411h-240l-381 928l-164 -928h-260z" />
<glyph unicode="O" horiz-adv-x="1611" d="M213 702q27 147 106 281t190.5 231.5t254.5 155t291 57.5t271.5 -57.5t201.5 -155.5q80 -97 112 -231q18 -73 17 -150q0 -64 -12 -131q-26 -146 -106 -279.5t-193 -230.5t-256.5 -154.5t-290.5 -57.5q-148 0 -270.5 57.5t-200 154.5t-109.5 230q-18 73 -18 151 q0 63 12 129zM473 702q-7 -44 -8 -85q-1 -79 27 -149q40 -106 133 -168t219 -62q124 0 240.5 61.5t196.5 168.5t101 234q7 44 7 85q0 79 -26 149q-40 107 -133 170t-218 63q-126 0 -242.5 -63t-196 -170.5t-100.5 -233.5z" />
<glyph unicode="P" horiz-adv-x="1253" d="M176 0l248 1411h573q77 0 139.5 -18t105 -49.5t73 -75t43 -94.5t16.5 -107q1 -14 1 -28q0 -42 -9 -85q-17 -89 -57.5 -168t-104 -143.5t-158 -102.5t-208.5 -38h-312l-88 -502h-262zM567 735h299q95 0 160 66.5t78 152.5q4 21 4 43q0 18 -2 35q-6 40 -21.5 72.5t-50 53 t-82.5 20.5h-307z" />
<glyph unicode="Q" horiz-adv-x="1622" d="M213 702q27 147 106.5 281t192 231.5t256 155t291.5 57.5q120 0 225.5 -37t181.5 -103t128 -157t66 -199q6 -46 6 -94q0 -65 -11 -135q-32 -184 -145 -342.5t-279 -257.5l100 -227l-209 -115l-112 248q-109 -28 -207 -28q-148 0 -271.5 57.5t-201.5 154.5t-110 230 q-19 74 -19 152q0 63 12 128zM475 702q-9 -47 -9 -91q0 -118 63 -213q86 -131 249 -156q48 -6 87 -6q23 0 44 2l-86 204l209 113l103 -233q99 64 166 162t90 218q9 47 9 92q0 77 -26 147q-42 110 -137 174.5t-221 64.5q-192 0 -348 -140t-193 -338z" />
<glyph unicode="R" horiz-adv-x="1292" d="M176 0l248 1411h565q76 0 138.5 -18t105 -49.5t73.5 -75t44.5 -94.5t17.5 -107q1 -14 1 -28q0 -42 -9 -85q-17 -104 -70 -195.5t-148.5 -160t-217.5 -86.5l270 -512h-315l-244 502h-109l-88 -502h-262zM567 735h283q95 0 159.5 66.5t77.5 152.5q4 25 4 49q1 28 -5 55 q-10 49 -48.5 84.5t-101.5 35.5h-291z" />
<glyph unicode="S" horiz-adv-x="1181" d="M166 412h262q-1 -11 -1 -21q-1 -70 47 -120q54 -58 165 -58q103 0 172.5 48t87.5 122q5 21 5 40q0 107 -165 152l-166 46q-290 86 -290 322q0 34 6 71q33 182 190.5 297.5t356.5 115.5q205 -1 317 -117q85 -88 84 -220q0 -42 -8 -89h-262q4 22 4 41q0 56 -36 94 q-49 50 -147 50q-89 0 -157.5 -46t-81.5 -120q-7 -15 -2.5 -37.5t15 -44.5t43.5 -44t83 -36l166 -51q87 -26 150.5 -63t99.5 -79q35 -43 54 -91q17 -44 17 -88v-9q-2 -49 -14 -100q-43 -184 -203.5 -292t-361.5 -108q-146 0 -253 58q-107 57 -153 157q-31 67 -31 144 q0 37 7 76z" />
<glyph unicode="T" horiz-adv-x="1173" d="M264 1171l41 240h1059l-41 -240h-397l-207 -1171h-264l207 1171h-398z" />
<glyph unicode="U" horiz-adv-x="1394" d="M246 498l164 913h266l-164 -913q-5 -27 -5 -52q1 -84 53 -143q68 -76 177 -76q111 0 205.5 76t114.5 195l162 913h260l-162 -913q-16 -92 -58.5 -174.5t-103.5 -144.5t-135.5 -107t-158.5 -68.5t-169 -23.5q-107 0 -198 37t-152.5 103t-87.5 164q-15 57 -16 121 q0 45 8 93z" />
<glyph unicode="V" horiz-adv-x="1177" d="M289 1411h272l101 -983l448 983h272l-675 -1411h-236z" />
<glyph unicode="W" horiz-adv-x="1826" d="M258 1411h283l127 -983l356 786h209l72 -786l477 983h284l-727 -1411h-211l-75 801l-355 -801h-213z" />
<glyph unicode="X" horiz-adv-x="1316" d="M12 0l623 754l-328 657h314l204 -448l365 448h313l-557 -657l359 -754h-312l-241 543l-430 -543h-310z" />
<glyph unicode="Y" horiz-adv-x="1318" d="M231 1411h312l268 -543l461 543h313l-680 -772l-112 -639h-269l113 643z" />
<glyph unicode="Z" horiz-adv-x="1202" d="M86 0l35 205l852 971h-654l41 235h992l-37 -207l-858 -968h686l-39 -236h-1018z" />
<glyph unicode="[" horiz-adv-x="679" d="M70 -465l333 1876h451l-33 -194h-229l-264 -1485h229l-37 -197h-450z" />
<glyph unicode="\" horiz-adv-x="1026" d="M309 1411h219l437 -1411h-220z" />
<glyph unicode="]" horiz-adv-x="679" d="M-8 -465l33 197h229l264 1485h-229l33 194h450l-334 -1876h-446z" />
<glyph unicode="_" horiz-adv-x="1490" d="M82 -254l33 191h1233l-33 -191h-1233z" />
<glyph unicode="`" horiz-adv-x="1103" d="M520 1448h262l156 -334h-195z" />
<glyph unicode="a" horiz-adv-x="1257" d="M166 479q27 147 117 263t210.5 175.5t247.5 59.5q79 0 157.5 -33.5t113.5 -105.5l22 118h250l-168 -956h-250l19 123q-53 -68 -146 -104.5t-172 -36.5q-95 0 -177 35.5t-139 98t-81 157.5q-13 52 -13 108q0 48 9 98zM424 479q-5 -27 -5 -52q0 -77 50 -133q66 -72 174 -73 q69 0 133.5 29.5t112.5 89.5t61 139q4 26 4 50q0 83 -51 137q-66 70 -170 71q-108 0 -198 -72t-111 -186z" />
<glyph unicode="b" horiz-adv-x="1241" d="M141 0l260 1477h250l-114 -648q53 71 139.5 109.5t185.5 38.5q94 0 173 -35.5t132 -99.5t73 -159q10 -48 10 -100q0 -51 -9 -106q-39 -221 -200.5 -359t-356.5 -138q-97 0 -171.5 39.5t-100.5 109.5l-21 -129h-250zM477 481q-5 -29 -5 -55q0 -79 47 -134q63 -73 167 -73 q105 0 191 73t106 189q5 30 5 57q0 78 -44 130q-60 72 -166 71q-103 0 -192.5 -70.5t-108.5 -187.5z" />
<glyph unicode="c" horiz-adv-x="1064" d="M162 481q27 147 119 261.5t219 174.5t266 60q122 0 217.5 -48t149.5 -138l-228 -150q-24 46 -72 70t-110 24q-109 0 -201 -70.5t-112 -183.5q-5 -26 -5 -51q0 -82 52 -138q67 -74 176 -73q128 0 215 96l174 -147q-85 -91 -197 -139.5t-235 -48.5q-102 0 -189.5 36.5 t-147.5 100.5q-59 64 -85 159q-14 53 -15 111q0 46 9 94z" />
<glyph unicode="d" horiz-adv-x="1241" d="M166 477q27 148 112 263.5t201.5 176t243.5 60.5q100 0 175 -39t99 -109l117 648h248l-262 -1477h-248l20 129q-53 -70 -141 -109.5t-184 -39.5q-94 0 -172.5 35.5t-131.5 99t-75 157.5q-11 50 -11 105q0 48 9 100zM424 481q-5 -29 -5 -55q0 -79 45 -134q60 -73 167 -73 t193.5 72.5t107.5 189.5q4 27 4 52q0 82 -48 136q-63 70 -167 70q-106 0 -191 -71.5t-106 -186.5z" />
<glyph unicode="e" horiz-adv-x="1132" d="M164 481q27 148 114.5 262t210.5 174t259 60q207 0 322 -137q85 -102 85 -250q0 -52 -10 -109q-3 -11 -9.5 -42t-9.5 -44h-729q-1 -8 0 -16q0 -84 57 -134q63 -55 171 -55q76 0 148.5 32t113.5 91q115 -69 172 -102q-82 -116 -213.5 -173.5t-274.5 -57.5q-209 0 -328 140 q-89 105 -89 255q0 51 10 106zM426 565h492v12q0 87 -53 137q-57 54 -152 54q-100 0 -177.5 -53.5t-109.5 -149.5z" />
<glyph unicode="f" horiz-adv-x="731" d="M180 756l35 200h182l17 76q36 213 160 329t325 116h105l-43 -240h-105q-82 0 -126.5 -54t-63.5 -151l-17 -76h203l-35 -200h-203l-133 -756h-252l133 756h-182z" />
<glyph unicode="g" horiz-adv-x="1251" d="M82 -195q37 16 121 56t100 47q18 -70 84 -114t143 -44q87 0 154 30.5t107.5 85.5t63.5 120t32 145q-46 -70 -139 -110.5t-191 -40.5q-93 0 -173.5 35.5t-136 98t-78.5 156.5q-12 51 -12 106q0 48 9 99q27 148 115 264.5t207 177t245 60.5q97 0 174 -40t103 -110l24 129 h244l-145 -819q-56 -312 -221 -463t-423 -151q-149 0 -257.5 75.5t-149.5 206.5zM426 479q-5 -30 -5 -56q0 -79 46 -133q62 -73 170 -73q103 0 194.5 73t110.5 189q5 29 5 55q0 81 -47 134q-62 69 -171 69q-107 0 -194.5 -72t-108.5 -186z" />
<glyph unicode="h" horiz-adv-x="1202" d="M141 0l260 1477h250l-119 -668q31 54 93.5 94t123.5 57t111 17q185 -1 264 -117q53 -79 53 -200q0 -59 -12 -128l-92 -532h-250l90 520q4 26 4 49q0 65 -35 107q-48 57 -132 57q-92 0 -170 -54.5t-101 -168.5l-88 -510h-250z" />
<glyph unicode="i" horiz-adv-x="530" d="M141 0l168 956h248l-168 -956h-248zM338 1327q12 63 66.5 106.5t121.5 43.5q66 1 104 -43q29 -34 30 -80q0 -13 -3 -27q-10 -65 -63.5 -108t-120.5 -43t-106 43q-31 34 -31 82q0 13 2 26z" />
<glyph unicode="j" horiz-adv-x="534" d="M-203 -477l41 229h121q42 0 74 16t50.5 43.5t29 57t14.5 63.5l182 1024h252l-182 -1019q-36 -199 -136.5 -306.5t-287.5 -107.5h-158zM340 1327q12 63 66 106.5t120 43.5q67 0 106 -43q29 -34 29 -80q0 -13 -2 -27q-10 -65 -64 -108t-122 -43q-67 0 -105 43 q-30 34 -30 82q0 12 2 26z" />
<glyph unicode="k" horiz-adv-x="1062" d="M141 0l260 1477h248l-143 -807l315 286h324l-477 -419l395 -537h-313l-289 410l-72 -410h-248z" />
<glyph unicode="l" horiz-adv-x="532" d="M141 0l260 1477h250l-260 -1477h-250z" />
<glyph unicode="m" horiz-adv-x="1769" d="M141 0l168 956h250l-24 -141q49 80 136.5 120t166.5 40q114 -6 181 -48.5t91 -129.5q138 180 334 180q175 -1 251 -111q52 -75 52 -195q0 -57 -12 -124l-95 -547h-247l90 520q6 32 6 59q1 60 -27 98q-40 56 -121 56q-89 0 -152 -57.5t-83 -165.5l-88 -510h-250l90 526 q5 29 5 55q0 59 -27 97q-39 55 -115 55q-86 0 -153 -54t-89 -169l-88 -510h-250z" />
<glyph unicode="n" d="M141 0l168 956h250l-24 -141q51 74 139.5 118t173.5 44q169 0 243 -105q50 -71 51 -187q0 -55 -12 -120l-98 -565h-250l90 520q6 32 6 60q0 60 -27 98q-39 56 -122 55q-94 0 -160.5 -53t-89.5 -170l-88 -510h-250z" />
<glyph unicode="o" horiz-adv-x="1159" d="M164 481q27 148 115 262t211.5 174t259.5 60q101 0 185.5 -35.5t141 -98.5t79.5 -157q12 -50 12 -105q0 -48 -9 -100q-27 -147 -114.5 -262t-210.5 -176t-259 -61q-101 0 -186 36t-141 100t-80 158q-13 51 -13 107q0 47 9 98zM412 481q-5 -28 -5 -54q0 -77 45 -131 q60 -71 166 -71q104 0 188.5 71t104.5 185q5 28 5 54q0 75 -45 127q-60 68 -166 68.5t-189.5 -68t-103.5 -181.5z" />
<glyph unicode="p" horiz-adv-x="1239" d="M55 -465l254 1421h250l-24 -129q53 70 142 110t185 40q93 0 171.5 -36t131.5 -99.5t73 -157.5q11 -48 11 -100q0 -51 -10 -105q-27 -148 -111.5 -263.5t-200.5 -175.5t-243 -60q-97 0 -172 38.5t-100 108.5l-107 -592h-250zM477 475q-4 -28 -4 -53q0 -82 47 -135 q61 -70 166 -70q106 0 191.5 72t105.5 186q5 29 5 55q0 79 -45 134q-60 73 -165 73q-107 0 -193.5 -72.5t-107.5 -189.5z" />
<glyph unicode="q" horiz-adv-x="1239" d="M166 479q27 146 111.5 261t201 176t242.5 61q97 0 172 -40t98 -110l25 129h250l-254 -1421h-250l106 592q-50 -70 -138 -108.5t-185 -38.5q-94 0 -172.5 35.5t-131.5 99t-74 158.5q-11 49 -11 102q0 50 10 104zM424 475q-5 -29 -5 -55q0 -78 45 -132q60 -71 165 -71 q103 0 191.5 70.5t107.5 187.5q5 30 5 56q0 79 -46 133q-62 73 -168 73t-190.5 -73t-104.5 -189z" />
<glyph unicode="r" horiz-adv-x="841" d="M141 0l168 956h250l-41 -225q57 123 142.5 184.5t173.5 61.5q96 0 149 -35l-82 -225q-53 26 -139 26q-243 0 -311 -405l-60 -338h-250z" />
<glyph unicode="s" horiz-adv-x="929" d="M125 301h233v-10q0 -45 41 -78t100 -33h13q55 2 95 28.5t46 67.5q10 36 -11.5 57.5t-74.5 33.5l-125 32q-69 19 -115.5 46t-69.5 53t-32 62q-9 35 -9 62t7 70q22 117 140.5 201t261.5 84q71 0 130.5 -17t107 -51t70.5 -94q16 -42 16 -93q0 -22 -3 -46h-237v10 q0 42 -30 64q-34 24 -83 24q-119 0 -137 -94q-6 -28 18 -48.5t68 -31.5l153 -39q60 -17 102.5 -45.5t63.5 -58.5t30.5 -65.5t9 -63t-6.5 -54.5q-16 -94 -86.5 -162.5t-163.5 -100t-194 -31.5q-97 0 -176.5 36.5t-123.5 111.5q-32 55 -32 122q0 25 4 51z" />
<glyph unicode="t" horiz-adv-x="718" d="M180 756l35 200h174l66 365h247l-65 -365h203l-35 -200h-203l-133 -756h-248l133 756h-174z" />
<glyph unicode="u" d="M197 391l100 565h252l-92 -520q-6 -32 -6 -60q-1 -64 31 -100q44 -52 120 -53q87 0 157 54t89 169l90 510h250l-168 -956h-250l23 135q-51 -74 -133.5 -114.5t-159.5 -40.5q-174 0 -256 106q-57 74 -58 193q0 52 11 112z" />
<glyph unicode="v" horiz-adv-x="1060" d="M186 956h267l133 -637l358 637h268l-571 -956h-221z" />
<glyph unicode="w" horiz-adv-x="1585" d="M193 956h266l86 -604l301 604h221l86 -604l303 604h266l-510 -956h-208l-101 641l-319 -641h-207z" />
<glyph unicode="x" horiz-adv-x="1064" d="M14 0l467 520l-235 436h293l120 -235l203 235h293l-391 -436l285 -520h-291l-170 319l-283 -319h-291z" />
<glyph unicode="y" horiz-adv-x="1046" d="M86 -467l315 541l-215 882h267l131 -596l346 596h266l-846 -1423h-264z" />
<glyph unicode="z" horiz-adv-x="1040" d="M84 0l31 190l590 533h-463l41 233h825l-35 -192l-594 -531h502l-41 -233h-856z" />
<glyph unicode="{" horiz-adv-x="833" d="M137 389l33 170q49 0 90 31.5t51 83.5l62 332q33 182 169 293.5t310 111.5h160l-33 -192h-166q-78 0 -141 -55.5t-80 -141.5l-57 -313q-17 -86 -66.5 -149t-114.5 -87q58 -24 86 -87t11 -146l-52 -301q-12 -85 31.5 -146t120.5 -61h166l-39 -197h-160q-173 0 -271 112 t-65 294l60 335q9 49 -24 81t-81 32z" />
<glyph unicode="|" horiz-adv-x="452" d="M111 -250l335 1888h142l-336 -1888h-141z" />
<glyph unicode="}" horiz-adv-x="833" d="M-12 -465l32 197h166q77 0 144.5 62t79.5 145l51 301q17 83 68 146t114 87q-57 24 -86 88t-12 148l57 313q17 85 -27.5 141t-123.5 56h-166l32 192h160q174 0 272.5 -112t65.5 -293l-59 -332q-7 -50 25.5 -82.5t80.5 -32.5l-31 -170q-49 0 -92 -32t-53 -81l-59 -335 q-33 -181 -172.5 -293.5t-311.5 -112.5h-155z" />
<glyph unicode="&#xa1;" horiz-adv-x="542" d="M39 -465l219 1010h215l-141 -1010h-293zM254 821q12 67 65.5 111.5t120.5 44.5q68 0 109 -44.5t29 -111.5t-68 -111t-125 -44q-67 0 -105 44t-26 111z" />
<glyph unicode="&#xa2;" horiz-adv-x="1095" d="M170 481q36 193 177.5 323t330.5 165l39 219h141l-37 -213q106 -11 189.5 -58.5t130.5 -125.5l-228 -150q-49 94 -180 94q-109 0 -201.5 -70.5t-113.5 -183.5q-20 -115 47 -188.5t176 -73.5q131 0 215 96l174 -147q-157 -164 -385 -186l-41 -232h-141l41 238 q-174 29 -272 165t-62 328z" />
<glyph unicode="&#xa3;" horiz-adv-x="1357" d="M88 0l39 229h209l61 349h-166l23 127h166l45 258q37 212 177.5 338t336.5 126q91 0 165 -27.5t126 -83.5t71 -140.5t0 -198.5h-256q16 100 -28.5 146.5t-128.5 41.5q-76 -2 -135 -50.5t-72 -125.5l-51 -284h262l-23 -127h-262l-61 -349h389q34 0 60 15t32 49l14 80h248 l-18 -111q-21 -112 -100 -187t-183 -75h-940z" />
<glyph unicode="&#xa4;" horiz-adv-x="1265" d="M195 330l170 147q-45 88 -23 217q22 127 102 219l-120 148l153 131l123 -148q112 64 225 64q126 0 211 -64l170 148l109 -131l-172 -148q45 -109 26 -219q-21 -122 -104 -217l121 -147l-156 -131l-119 147q-109 -65 -231 -65q-124 0 -207 65l-172 -147zM567 694 q-17 -79 28 -133.5t124 -54.5t144.5 54t82.5 134q17 77 -31.5 134t-128.5 57q-78 0 -139.5 -55.5t-79.5 -135.5z" />
<glyph unicode="&#xa5;" horiz-adv-x="1480" d="M303 207l25 135h336l30 180h-336l25 137h324l-396 752h312l266 -543l463 543h313l-666 -752h326l-25 -137h-337l-31 -180h338l-25 -135h-338l-35 -207h-268l35 207h-336z" />
<glyph unicode="&#xa6;" horiz-adv-x="460" d="M115 -250l137 789h141l-137 -789h-141zM309 850l142 788h141l-141 -788h-142z" />
<glyph unicode="&#xa7;" horiz-adv-x="1089" d="M115 -47l223 65q11 -80 60 -117.5t116 -37.5q84 0 148 51.5t81 140.5l70 385q17 90 -33 140.5t-139 50.5q-36 0 -92 -13l39 226q60 14 102 14q85 0 157 -30t121.5 -83.5t69.5 -132.5t2 -172l-69 -385q-21 -123 -96 -219.5t-180 -147t-220 -50.5q-93 0 -170 34 t-129.5 106.5t-60.5 174.5zM231 614l68 385q21 123 97 220t182 147.5t221 50.5q144 0 245.5 -82t112.5 -233l-225 -66q-10 79 -59 117.5t-117 38.5q-82 0 -147.5 -52.5t-82.5 -140.5l-69 -385q-17 -90 33 -140t139 -50q42 0 94 12l-41 -225q-60 -14 -100 -14 q-177 0 -279.5 115.5t-71.5 301.5z" />
<glyph unicode="&#xa8;" horiz-adv-x="1128" d="M475 1294q11 57 57.5 95t106.5 38q58 0 92.5 -38.5t24.5 -94.5t-58 -94.5t-106 -38.5q-60 0 -93.5 38t-23.5 95zM831 1294q11 57 57.5 95t106.5 38t93.5 -38t23.5 -95q-11 -57 -57.5 -95t-106.5 -38t-93.5 38t-23.5 95z" />
<glyph unicode="&#xa9;" horiz-adv-x="1640" d="M227 702q36 197 159.5 363.5t305 264t377.5 97.5t344.5 -97.5t214.5 -264.5t31 -363q-27 -148 -107 -281.5t-193 -230t-256 -153.5t-290 -57q-148 0 -270.5 57t-200.5 153.5t-110 230t-5 281.5zM352 702q-22 -121 5 -231t91.5 -190t166.5 -127.5t223 -47.5 q162 0 311.5 80t251.5 217t131 299q22 121 -5 232t-92.5 191t-167.5 127.5t-223 47.5q-162 0 -310.5 -80.5t-250 -217.5t-131.5 -300zM578 692q29 155 153.5 262t280.5 107q148 0 258 -135l-113 -97q-81 95 -170 95q-96 0 -174.5 -68.5t-95.5 -163.5q-15 -98 38.5 -165.5 t149.5 -67.5q87 0 207 98l76 -102q-155 -133 -307 -133q-156 0 -243.5 108t-59.5 262z" />
<glyph unicode="&#xaa;" horiz-adv-x="976" d="M238 416l22 127h645l-22 -127h-645zM281 1001q29 158 145.5 255.5t261.5 97.5q66 0 119.5 -27t81.5 -80l16 92h146l-121 -675h-146l17 94q-42 -50 -108.5 -79.5t-129.5 -29.5q-144 0 -227 97.5t-55 254.5zM434 1004q-17 -91 31.5 -150t134.5 -59q87 0 158 57t88 152 q16 94 -38 149t-136 55q-87 0 -154 -56.5t-84 -147.5z" />
<glyph unicode="&#xab;" horiz-adv-x="1021" d="M166 477l358 424h201l-358 -424l208 -424h-200zM528 477l359 424h200l-358 -424l209 -424h-201z" />
<glyph unicode="&#xac;" horiz-adv-x="1296" d="M236 532l38 222h998l-92 -531h-224l54 309h-774z" />
<glyph unicode="&#xad;" horiz-adv-x="976" d="M197 391l36 209h719l-37 -209h-718z" />
<glyph unicode="&#xae;" horiz-adv-x="1640" d="M227 702q36 197 159.5 363.5t305 264t377.5 97.5t344.5 -97.5t214.5 -264.5t31 -363q-27 -148 -107 -281.5t-193 -230t-256 -153.5t-290 -57q-148 0 -270.5 57t-200.5 153.5t-110 230t-5 281.5zM352 702q-22 -121 5 -231t91.5 -190t166.5 -127.5t223 -47.5 q162 0 311.5 80t251.5 217t131 299q22 121 -5 232t-92.5 191t-167.5 127.5t-223 47.5q-162 0 -310.5 -80.5t-250 -217.5t-131.5 -300zM633 338l127 723h280q111 0 159 -70t32 -168q-13 -79 -64 -141t-135 -84l142 -260h-173l-137 250h-47l-43 -250h-141zM840 727h135 q45 0 78 28.5t39 67.5q6 41 -14 70t-62 29h-139z" />
<glyph unicode="&#xaf;" horiz-adv-x="1042" d="M457 1198l30 170h551l-30 -170h-551z" />
<glyph unicode="&#xb0;" horiz-adv-x="763" d="M297 1143q22 117 120.5 200.5t215.5 83.5q119 0 188 -83.5t47 -200.5q-20 -118 -119.5 -202.5t-218.5 -84.5q-117 0 -185 84t-48 203zM442 1143q-10 -60 24 -101t91 -41q60 0 107.5 41t58.5 101q10 60 -22.5 99.5t-92.5 39.5q-58 0 -107 -40t-59 -99z" />
<glyph unicode="&#xb1;" horiz-adv-x="1118" d="M139 -2l33 195h836l-33 -195h-836zM244 588l35 196h317l51 291h199l-51 -291h319l-35 -196h-319l-53 -295h-199l53 295h-317z" />
<glyph unicode="&#xb2;" horiz-adv-x="649" d="M219 887l10 76l392 383q55 55 63 102q10 41 -16.5 67.5t-77.5 26.5q-47 0 -86.5 -31.5t-59.5 -85.5l-131 29q38 106 121 169t187 63q107 0 168.5 -67t44.5 -171q-19 -105 -119 -201q-170 -159 -230 -217h263l-25 -143h-504z" />
<glyph unicode="&#xb3;" horiz-adv-x="655" d="M223 1040q11 4 70 32.5t67 33.5q14 -36 44.5 -60t70.5 -28q52 -4 96.5 26.5t55.5 73.5q6 15 2.5 35t-11.5 39t-32.5 32t-61.5 13h-86l23 129h86q49 0 79.5 37t30.5 65q5 31 -16.5 55.5t-60.5 24.5q-67 3 -113 -53q-1 1 -49.5 36t-50.5 40q43 56 113.5 87.5t144.5 27.5 q100 -6 151 -68.5t37 -151.5q-7 -46 -41.5 -88t-83.5 -67q58 -24 84 -85.5t8 -125.5q-16 -66 -69.5 -119.5t-126.5 -81t-146 -22.5q-79 6 -137 50.5t-78 112.5z" />
<glyph unicode="&#xb4;" horiz-adv-x="1103" d="M461 1114l274 334h262l-342 -334h-194z" />
<glyph unicode="&#xb5;" d="M90 -365l234 1321h247l-92 -524q-19 -106 26 -157.5t116 -51.5q87 0 156.5 54.5t88.5 168.5l90 510h250l-168 -956h-250l21 127q-52 -69 -131 -108t-152 -39q-94 0 -151 57l-27 -258l-24 -144h-234z" />
<glyph unicode="&#xb6;" horiz-adv-x="1417" d="M240 967q32 185 183.5 314.5t338.5 129.5h178l-256 -1438q-8 -52 -20 -65q-16 -19 -58 -19h-135l115 633q-175 12 -276.5 139.5t-69.5 305.5zM420 -401l29 176h223q42 0 77.5 28t41.5 66l272 1542h248q116 0 184.5 -84t46.5 -197l-31 -174h-184l29 162q7 41 -14.5 70 t-59.5 29h-59l-238 -1338q-21 -107 -120.5 -193.5t-209.5 -86.5h-57h-178z" />
<glyph unicode="&#xb7;" horiz-adv-x="569" d="M233 641q12 66 67.5 111t121.5 45q68 0 106.5 -44.5t28.5 -111.5t-66 -111.5t-124 -44.5q-67 0 -105.5 44.5t-28.5 111.5z" />
<glyph unicode="&#xb8;" horiz-adv-x="1081" d="M297 -190l139 -9q-2 -6 -2 -16q0 -26 4 -35q6 -26 28.5 -37.5t51.5 -3.5q28 10 42 37t9 57l-47 256h121l70 -192q14 -32 0 -94q-18 -84 -90.5 -146.5t-161.5 -62.5q-85 0 -136 67t-28 179z" />
<glyph unicode="&#xb9;" horiz-adv-x="434" d="M295 1407l20 133l312 143l-142 -796h-149l102 581z" />
<glyph unicode="&#xba;" horiz-adv-x="950" d="M223 416l23 127h655l-22 -127h-656zM291 1006q18 103 80.5 183t150.5 122.5t185 42.5q146 0 232.5 -97t59.5 -251q-19 -105 -83 -188t-151.5 -126t-182.5 -43q-97 0 -169.5 43.5t-106.5 125.5t-15 188zM438 1006q-18 -96 31.5 -153.5t138.5 -57.5q88 0 157 57.5t87 153.5 q17 90 -33 146t-139 56q-87 0 -156 -56t-86 -146z" />
<glyph unicode="&#xbb;" horiz-adv-x="1021" d="M100 53l357 424l-205 424h201l204 -424l-356 -424h-201zM463 53l356 424l-205 424h201l205 -424l-356 -424h-201z" />
<glyph unicode="&#xbc;" horiz-adv-x="1591" d="M207 -20l1173 1390h156l-1169 -1390h-160zM268 1073l25 135l309 142l-141 -797h-150l103 582zM899 170l506 618h143l-86 -487h105l-25 -131h-104l-27 -170h-149l26 170h-389zM1145 301h168l47 266z" />
<glyph unicode="&#xbd;" horiz-adv-x="1622" d="M207 -20l1173 1390h156l-1169 -1390h-160zM268 1073l25 135l309 142l-141 -797h-150l103 582zM1014 0l12 78l389 383q56 56 64 102q6 42 -19.5 68t-75.5 26q-48 0 -87 -31.5t-56 -84.5l-133 26q37 108 120.5 171t188.5 63q106 0 167 -67.5t44 -170.5q-18 -105 -121 -201 l-229 -219h262l-22 -143h-504z" />
<glyph unicode="&#xbe;" horiz-adv-x="1746" d="M197 709l139 65q13 -38 43 -63t72 -25q50 -4 95.5 26.5t53.5 71.5q7 15 4.5 36t-10 40t-33 32t-63.5 13h-86l24 129h86q50 0 78.5 37t28.5 66q5 31 -15 55.5t-59 24.5q-63 3 -115 -56l-100 78q45 56 115.5 87.5t144.5 27.5q99 -6 151 -69t35 -150q-11 -47 -44 -89 t-80 -67q58 -25 83.5 -85.5t8.5 -127.5q-29 -100 -128.5 -165t-211.5 -58q-78 6 -135.5 51.5t-81.5 114.5zM362 -20l1174 1390h156l-1170 -1390h-160zM1057 170l504 618h143l-86 -487h104l-22 -131h-105l-28 -170h-150l29 170h-389zM1300 301h168l48 266z" />
<glyph unicode="&#xbf;" horiz-adv-x="987" d="M51 -78q24 143 123 245.5t232 141.5q67 21 100 57t45 107l18 74h244l-10 -74q-7 -40 -16 -73t-22 -62t-24.5 -52t-31.5 -45t-34.5 -37.5t-42 -33.5t-46.5 -30t-55 -29t-60 -28t-68 -30q-85 -32 -102 -133q-12 -65 32.5 -106t119.5 -41t134 49t72 129h248 q-36 -195 -173.5 -311.5t-323.5 -116.5q-187 0 -289 109t-70 290zM575 819q12 68 67 113t122 45t107 -45t28 -113q-12 -65 -67.5 -110t-122.5 -45t-106.5 45t-27.5 110z" />
<glyph unicode="&#xc0;" horiz-adv-x="1339" d="M0 0l776 1411h283l280 -1411h-276l-70 342h-526l-188 -342h-279zM596 571h352l-82 539zM645 1903h262l156 -334h-195z" />
<glyph unicode="&#xc1;" horiz-adv-x="1339" d="M0 0l776 1411h283l280 -1411h-276l-70 342h-526l-188 -342h-279zM596 571h352l-82 539zM823 1569l275 334h262l-342 -334h-195z" />
<glyph unicode="&#xc2;" horiz-adv-x="1339" d="M0 0l776 1411h283l280 -1411h-276l-70 342h-526l-188 -342h-279zM596 571h352l-82 539zM598 1575l283 334h252l165 -334h-192l-127 180l-188 -180h-193z" />
<glyph unicode="&#xc3;" horiz-adv-x="1339" d="M0 0l776 1411h283l280 -1411h-276l-70 342h-526l-188 -342h-279zM596 571h352l-82 539zM666 1610q15 70 43.5 122.5t63 80t68 40.5t66.5 13q30 0 55.5 -13t40.5 -29t33 -29t35 -13t40 20.5t32 63.5h143q-16 -69 -45.5 -121t-64.5 -79t-68.5 -39.5t-65.5 -12.5 q-37 0 -67 21t-53.5 42t-42.5 21q-17 0 -39 -22t-31 -66h-143z" />
<glyph unicode="&#xc4;" horiz-adv-x="1339" d="M0 0l776 1411h283l280 -1411h-276l-70 342h-526l-188 -342h-279zM596 571h352l-82 539zM659 1749q11 57 57.5 95t106.5 38q58 0 92.5 -38.5t24.5 -94.5t-58 -94.5t-106 -38.5q-60 0 -93.5 38t-23.5 95zM1016 1749q11 57 57.5 95t106.5 38t93 -38t23 -95q-11 -57 -57 -95 t-106 -38t-93.5 38t-23.5 95z" />
<glyph unicode="&#xc5;" horiz-adv-x="1339" d="M0 0l776 1411h283l280 -1411h-276l-70 342h-526l-188 -342h-279zM596 571h352l-82 539zM750 1794q17 100 98.5 170t177.5 70q103 0 159.5 -68.5t37.5 -171.5q-20 -99 -100 -166t-183 -67q-96 0 -153 68t-37 165zM866 1794q-10 -49 19.5 -83t77.5 -34q51 0 90.5 33.5 t50.5 83.5q10 51 -19.5 86t-80.5 35q-47 0 -87.5 -35t-50.5 -86z" />
<glyph unicode="&#xc6;" horiz-adv-x="1910" d="M-29 0l1139 1411h926l-43 -237h-611l-61 -363h534l-43 -233h-534l-61 -340h630l-39 -238h-890l-3 2v-2l58 334h-420l-270 -334h-312zM748 586h270l82 471z" />
<glyph unicode="&#xc7;" horiz-adv-x="1421" d="M215 702q27 147 106 281t190.5 231.5t254 155t289.5 57.5q177 0 311 -73.5t207 -204.5l-238 -150q-49 83 -133 132t-192 49q-190 0 -343 -139.5t-190 -338.5q-37 -198 69 -336.5t296 -138.5q112 0 215 51t184 140l180 -152q-105 -122 -252.5 -197t-312.5 -87l43 -115 q14 -32 0 -94q-18 -84 -90.5 -146.5t-161.5 -62.5q-86 0 -137.5 67t-28.5 179l142 -9q-2 -6 -2 -16q0 -26 4 -35q14 -56 77 -41q30 10 44 37t8 57l-33 181q-176 19 -303 119t-181.5 257.5t-21.5 341.5z" />
<glyph unicode="&#xc8;" horiz-adv-x="1171" d="M176 0l248 1411h872l-41 -233h-612l-63 -367h536l-41 -231h-536l-62 -347h633l-41 -233h-893zM647 1903h262l156 -334h-195z" />
<glyph unicode="&#xc9;" horiz-adv-x="1171" d="M176 0l248 1411h872l-41 -233h-612l-63 -367h536l-41 -231h-536l-62 -347h633l-41 -233h-893zM668 1569l274 334h262l-342 -334h-194z" />
<glyph unicode="&#xca;" horiz-adv-x="1171" d="M176 0l248 1411h872l-41 -233h-612l-63 -367h536l-41 -231h-536l-62 -347h633l-41 -233h-893zM510 1575l283 334h251l166 -334h-192l-127 180l-189 -180h-192z" />
<glyph unicode="&#xcb;" horiz-adv-x="1171" d="M176 0l248 1411h872l-41 -233h-612l-63 -367h536l-41 -231h-536l-62 -347h633l-41 -233h-893zM600 1749q11 57 57.5 95t106.5 38q58 0 92.5 -38.5t24.5 -94.5t-58 -94.5t-106 -38.5q-60 0 -93.5 38t-23.5 95zM956 1749q11 57 57.5 95t106.5 38t93.5 -38t23.5 -95 q-11 -57 -57.5 -95t-106.5 -38t-93.5 38t-23.5 95z" />
<glyph unicode="&#xcc;" horiz-adv-x="612" d="M176 0l248 1411h260l-248 -1411h-260zM293 1903h262l156 -334h-195z" />
<glyph unicode="&#xcd;" horiz-adv-x="612" d="M176 0l248 1411h260l-248 -1411h-260zM455 1569l274 334h262l-342 -334h-194z" />
<glyph unicode="&#xce;" horiz-adv-x="612" d="M176 0l248 1411h260l-248 -1411h-260zM236 1575l282 334h252l166 -334h-193l-127 180l-188 -180h-192z" />
<glyph unicode="&#xcf;" horiz-adv-x="612" d="M176 0l248 1411h260l-248 -1411h-260zM297 1749q11 57 57.5 95t106.5 38q58 0 92.5 -38.5t24.5 -94.5t-58 -94.5t-106 -38.5q-60 0 -93.5 38t-23.5 95zM653 1749q11 57 57.5 95t106.5 38t93.5 -38t23.5 -95q-11 -57 -57.5 -95t-106.5 -38t-93.5 38t-23.5 95z" />
<glyph unicode="&#xd0;" horiz-adv-x="1478" d="M111 600l30 180h193l112 631h547q196 0 325.5 -94t175 -253.5t9.5 -361.5q-27 -151 -92 -279t-161 -222.5t-226 -147.5t-279 -53h-546l104 600h-192zM500 244h286q181 0 302 129.5t155 328.5q12 77 11.5 146t-21.5 127.5t-56.5 101t-93 66.5t-131.5 24h-286l-72 -387h283 l-31 -180h-283z" />
<glyph unicode="&#xd1;" horiz-adv-x="1396" d="M176 0l248 1411h244l376 -917l162 917h262l-247 -1411h-240l-381 928l-164 -928h-260zM694 1610q15 70 43.5 122.5t63 80t68.5 40.5t67 13q30 0 55.5 -13t40.5 -29t33 -29t35 -13t39.5 20t31.5 64h144q-16 -69 -45.5 -121t-64.5 -79t-68.5 -39.5t-65.5 -12.5 q-29 0 -55 13t-41 29t-33.5 29t-34.5 13t-38 -22t-31 -66h-144z" />
<glyph unicode="&#xd2;" horiz-adv-x="1611" d="M213 702q27 147 106 281t190.5 231.5t254.5 155t291 57.5t271.5 -57.5t202 -155t111 -231.5t5.5 -281q-26 -146 -106 -279.5t-193 -230.5t-256.5 -154.5t-290.5 -57.5q-148 0 -270.5 57.5t-200 154.5t-109.5 230t-6 280zM473 702q-21 -128 19.5 -234t133 -168t218.5 -62 q124 0 240.5 61.5t196.5 168.5t101 234t-19 234t-133 170t-218 63q-126 0 -242.5 -63t-196 -170.5t-100.5 -233.5zM760 1903h262l156 -334h-195z" />
<glyph unicode="&#xd3;" horiz-adv-x="1611" d="M213 702q27 147 106 281t190.5 231.5t254.5 155t291 57.5t271.5 -57.5t202 -155t111 -231.5t5.5 -281q-26 -146 -106 -279.5t-193 -230.5t-256.5 -154.5t-290.5 -57.5q-148 0 -270.5 57.5t-200 154.5t-109.5 230t-6 280zM473 702q-21 -128 19.5 -234t133 -168t218.5 -62 q124 0 240.5 61.5t196.5 168.5t101 234t-19 234t-133 170t-218 63q-126 0 -242.5 -63t-196 -170.5t-100.5 -233.5zM969 1569l274 334h262l-342 -334h-194z" />
<glyph unicode="&#xd4;" horiz-adv-x="1611" d="M213 702q27 147 106 281t190.5 231.5t254.5 155t291 57.5t271.5 -57.5t202 -155t111 -231.5t5.5 -281q-26 -146 -106 -279.5t-193 -230.5t-256.5 -154.5t-290.5 -57.5q-148 0 -270.5 57.5t-200 154.5t-109.5 230t-6 280zM473 702q-21 -128 19.5 -234t133 -168t218.5 -62 q124 0 240.5 61.5t196.5 168.5t101 234t-19 234t-133 170t-218 63q-126 0 -242.5 -63t-196 -170.5t-100.5 -233.5zM731 1575l283 334h252l166 -334h-193l-125 180l-190 -180h-193z" />
<glyph unicode="&#xd5;" horiz-adv-x="1611" d="M213 702q27 147 106 281t190.5 231.5t254.5 155t291 57.5t271.5 -57.5t202 -155t111 -231.5t5.5 -281q-26 -146 -106 -279.5t-193 -230.5t-256.5 -154.5t-290.5 -57.5q-148 0 -270.5 57.5t-200 154.5t-109.5 230t-6 280zM473 702q-21 -128 19.5 -234t133 -168t218.5 -62 q124 0 240.5 61.5t196.5 168.5t101 234t-19 234t-133 170t-218 63q-126 0 -242.5 -63t-196 -170.5t-100.5 -233.5zM803 1610q15 70 43.5 122.5t62.5 80t67.5 40.5t67.5 13q30 0 55.5 -13t40 -29t32.5 -29t34 -13q17 0 40 20.5t34 63.5h143q-34 -132 -102 -192t-141 -60 q-30 0 -56.5 13t-42 29t-34 29t-33.5 13q-17 0 -39 -22t-29 -66h-143z" />
<glyph unicode="&#xd6;" horiz-adv-x="1611" d="M213 702q27 147 106 281t190.5 231.5t254.5 155t291 57.5t271.5 -57.5t202 -155t111 -231.5t5.5 -281q-26 -146 -106 -279.5t-193 -230.5t-256.5 -154.5t-290.5 -57.5q-148 0 -270.5 57.5t-200 154.5t-109.5 230t-6 280zM473 702q-21 -128 19.5 -234t133 -168t218.5 -62 q124 0 240.5 61.5t196.5 168.5t101 234t-19 234t-133 170t-218 63q-126 0 -242.5 -63t-196 -170.5t-100.5 -233.5zM797 1749q11 57 57.5 95t106.5 38q58 0 92 -38.5t24 -94.5t-58 -94.5t-106 -38.5q-60 0 -93 38t-23 95zM1153 1749q11 57 57.5 95t106.5 38t93.5 -38 t23.5 -95q-11 -57 -57.5 -95t-106.5 -38t-93.5 38t-23.5 95z" />
<glyph unicode="&#xd7;" horiz-adv-x="1007" d="M174 299l285 242l-201 243l164 138l201 -242l290 246l113 -142l-289 -243l201 -244l-164 -141l-203 243l-284 -239z" />
<glyph unicode="&#xd8;" horiz-adv-x="1607" d="M102 63l197 168q-137 201 -88 471q36 197 159.5 363.5t305 264t377.5 97.5q129 0 239 -43t189 -122l190 165l80 -94l-192 -168q129 -201 83 -463q-26 -146 -106 -279.5t-193 -230.5t-256 -154.5t-290 -57.5q-232 0 -391 133q-5 4 -12 8t-11 7t-8 7l-193 -168zM469 702 q-27 -159 43 -284l752 657q-100 94 -254 94q-125 0 -242 -63t-197.5 -170.5t-101.5 -233.5zM592 324q95 -86 250 -86q124 0 240.5 61.5t196.5 168.5t101 234q26 150 -41 275z" />
<glyph unicode="&#xd9;" horiz-adv-x="1394" d="M246 498l164 913h266l-164 -913q-20 -119 47.5 -195t177.5 -76q111 0 205.5 76t114.5 195l162 913h260l-162 -913q-16 -92 -58.5 -174.5t-103.5 -144.5t-135.5 -107t-158.5 -68.5t-169 -23.5q-107 0 -198 37t-152.5 103t-88 164.5t-7.5 213.5zM709 1903h262l155 -334 h-194z" />
<glyph unicode="&#xda;" horiz-adv-x="1394" d="M246 498l164 913h266l-164 -913q-20 -119 47.5 -195t177.5 -76q111 0 205.5 76t114.5 195l162 913h260l-162 -913q-16 -92 -58.5 -174.5t-103.5 -144.5t-135.5 -107t-158.5 -68.5t-169 -23.5q-107 0 -198 37t-152.5 103t-88 164.5t-7.5 213.5zM799 1569l274 334h262 l-342 -334h-194z" />
<glyph unicode="&#xdb;" horiz-adv-x="1394" d="M246 498l164 913h266l-164 -913q-20 -119 47.5 -195t177.5 -76q111 0 205.5 76t114.5 195l162 913h260l-162 -913q-16 -92 -58.5 -174.5t-103.5 -144.5t-135.5 -107t-158.5 -68.5t-169 -23.5q-107 0 -198 37t-152.5 103t-88 164.5t-7.5 213.5zM623 1575l282 334h252 l166 -334h-193l-124 180l-191 -180h-192z" />
<glyph unicode="&#xdc;" horiz-adv-x="1394" d="M246 498l164 913h266l-164 -913q-20 -119 47.5 -195t177.5 -76q111 0 205.5 76t114.5 195l162 913h260l-162 -913q-16 -92 -58.5 -174.5t-103.5 -144.5t-135.5 -107t-158.5 -68.5t-169 -23.5q-107 0 -198 37t-152.5 103t-88 164.5t-7.5 213.5zM686 1749q10 57 58 95 t108 38q58 0 91.5 -38.5t23.5 -94.5q-10 -57 -57.5 -95t-104.5 -38q-60 0 -94.5 38t-24.5 95zM1042 1749q10 57 58 95t108 38t93 -38t22 -95t-56.5 -95t-105.5 -38t-94.5 38t-24.5 95z" />
<glyph unicode="&#xdd;" horiz-adv-x="1318" d="M231 1411h312l268 -543l461 543h313l-680 -772l-112 -639h-269l113 643zM784 1569l275 334h262l-342 -334h-195z" />
<glyph unicode="&#xde;" horiz-adv-x="1173" d="M176 0l248 1411h260l-43 -237h231q191 0 298 -124.5t71 -326.5q-36 -203 -187 -330t-341 -127h-232l-45 -266h-260zM522 496h221q82 0 150 61.5t88 161.5q17 102 -32 164.5t-132 62.5h-215z" />
<glyph unicode="&#xdf;" horiz-adv-x="1611" d="M203.5 606q3.5 106 38.5 213h1147q-6 95 -45 169.5t-99 119t-138 62.5t-159.5 6.5t-166 -56.5t-154.5 -119l-185 150q68 75 149 131t165 88.5t172.5 47.5t171.5 7t162.5 -32t145 -69t119 -105t84.5 -140t42.5 -173.5t-8.5 -205.5q-33 -194 -156 -359.5t-305 -263 t-379 -97.5q-110 0 -207 32t-170 88.5t-125.5 136t-77.5 171.5t-21.5 198zM467 584q17 -164 124.5 -254t256.5 -90q155 0 292 89.5t208 254.5h-881z" />
<glyph unicode="&#xe0;" horiz-adv-x="1257" d="M166 479q27 147 117 263t210.5 175.5t247.5 59.5q79 0 157.5 -33.5t113.5 -105.5l22 118h250l-168 -956h-250l19 123q-53 -68 -146 -104.5t-172 -36.5q-95 0 -177 35.5t-139 98t-81 157.5t-4 206zM424 479q-21 -113 45 -185.5t174 -72.5q69 0 133.5 29.5t112.5 89.5 t61 139q19 117 -47 187.5t-170 70.5q-108 0 -198 -72t-111 -186zM571 1448h263l155 -334h-194z" />
<glyph unicode="&#xe1;" horiz-adv-x="1257" d="M166 479q27 147 117 263t210.5 175.5t247.5 59.5q79 0 157.5 -33.5t113.5 -105.5l22 118h250l-168 -956h-250l19 123q-53 -68 -146 -104.5t-172 -36.5q-95 0 -177 35.5t-139 98t-81 157.5t-4 206zM424 479q-21 -113 45 -185.5t174 -72.5q69 0 133.5 29.5t112.5 89.5 t61 139q19 117 -47 187.5t-170 70.5q-108 0 -198 -72t-111 -186zM645 1114l275 334h262l-342 -334h-195z" />
<glyph unicode="&#xe2;" horiz-adv-x="1257" d="M166 479q27 147 117 263t210.5 175.5t247.5 59.5q79 0 157.5 -33.5t113.5 -105.5l22 118h250l-168 -956h-250l19 123q-53 -68 -146 -104.5t-172 -36.5q-95 0 -177 35.5t-139 98t-81 157.5t-4 206zM424 479q-21 -113 45 -185.5t174 -72.5q69 0 133.5 29.5t112.5 89.5 t61 139q19 117 -47 187.5t-170 70.5q-108 0 -198 -72t-111 -186zM477 1120l281 334h252l168 -334h-193l-131 180l-184 -180h-193z" />
<glyph unicode="&#xe3;" horiz-adv-x="1257" d="M166 479q27 147 117 263t210.5 175.5t247.5 59.5q79 0 157.5 -33.5t113.5 -105.5l22 118h250l-168 -956h-250l19 123q-53 -68 -146 -104.5t-172 -36.5q-95 0 -177 35.5t-139 98t-81 157.5t-4 206zM424 479q-21 -113 45 -185.5t174 -72.5q69 0 133.5 29.5t112.5 89.5 t61 139q19 117 -47 187.5t-170 70.5q-108 0 -198 -72t-111 -186zM547 1155q15 70 43 122.5t61.5 80t67 40.5t67.5 13q29 0 55 -13t42 -29t34.5 -29t34.5 -13q17 0 39 20t31 64h143q-31 -132 -98.5 -192t-140.5 -60q-30 0 -56.5 13t-42 29t-34 29t-33.5 13q-16 0 -38.5 -22 t-31.5 -66h-143z" />
<glyph unicode="&#xe4;" horiz-adv-x="1257" d="M166 479q27 147 117 263t210.5 175.5t247.5 59.5q79 0 157.5 -33.5t113.5 -105.5l22 118h250l-168 -956h-250l19 123q-53 -68 -146 -104.5t-172 -36.5q-95 0 -177 35.5t-139 98t-81 157.5t-4 206zM424 479q-21 -113 45 -185.5t174 -72.5q69 0 133.5 29.5t112.5 89.5 t61 139q19 117 -47 187.5t-170 70.5q-108 0 -198 -72t-111 -186zM541 1294q11 57 57.5 95t106.5 38q58 0 92 -38.5t24 -94.5q-10 -57 -57.5 -95t-104.5 -38q-60 0 -94 38t-24 95zM897 1294q11 57 57.5 95t106.5 38t93.5 -38t23.5 -95q-11 -57 -56.5 -95t-105.5 -38t-94.5 38 t-24.5 95z" />
<glyph unicode="&#xe5;" horiz-adv-x="1257" d="M166 479q27 147 117 263t210.5 175.5t247.5 59.5q79 0 157.5 -33.5t113.5 -105.5l22 118h250l-168 -956h-250l19 123q-53 -68 -146 -104.5t-172 -36.5q-95 0 -177 35.5t-139 98t-81 157.5t-4 206zM424 479q-21 -113 45 -185.5t174 -72.5q69 0 133.5 29.5t112.5 89.5 t61 139q19 117 -47 187.5t-170 70.5q-108 0 -198 -72t-111 -186zM631 1339q17 101 97.5 170.5t176.5 69.5q103 0 160.5 -69t38.5 -171q-20 -99 -100 -166t-183 -67q-96 0 -153 68t-37 165zM748 1339q-10 -49 18 -82.5t76 -33.5q51 0 91.5 33t51.5 83q10 51 -19.5 86 t-80.5 35q-47 0 -86.5 -35t-50.5 -86z" />
<glyph unicode="&#xe6;" horiz-adv-x="2033" d="M166 479q27 147 117 263t210.5 175.5t247.5 59.5q79 0 157.5 -33.5t113.5 -105.5l22 118h232l-25 -153q77 84 184.5 129t225.5 45q207 0 321 -136.5t74 -359.5q-3 -11 -9 -42.5t-9 -43.5h-730q-4 -95 58.5 -150t169.5 -55q76 0 148.5 32t113.5 91l174 -102 q-86 -117 -216.5 -174t-270.5 -57q-118 0 -210 46t-141 132l-26 -158h-232l19 123q-53 -68 -146 -104.5t-172 -36.5q-95 0 -177 35.5t-139 98t-81 157.5t-4 206zM424 479q-21 -113 45 -185.5t174 -72.5q69 0 133.5 29.5t112.5 89.5t61 139q19 117 -47 187.5t-170 70.5 q-108 0 -198 -72t-111 -186zM1327 565h492q6 96 -51 149.5t-154 53.5q-100 0 -176 -53t-111 -150z" />
<glyph unicode="&#xe7;" horiz-adv-x="1069" d="M164 481q27 147 119 261.5t219 174.5t266 60q122 0 217.5 -48t149.5 -138l-228 -150q-49 94 -180 94q-109 0 -201.5 -70.5t-113.5 -183.5q-20 -115 47 -188.5t176 -73.5q131 0 215 96l174 -147q-73 -78 -170 -125.5t-203 -58.5l43 -117q12 -40 0 -94q-18 -84 -91 -146.5 t-163 -62.5q-87 0 -136.5 66.5t-27.5 179.5l140 -9q-2 -6 -2 -16q0 -26 4 -35q6 -26 28.5 -37.5t51.5 -3.5q30 10 43.5 37t7.5 57l-33 183q-185 25 -286.5 161t-65.5 334z" />
<glyph unicode="&#xe8;" horiz-adv-x="1132" d="M164 481q27 148 114.5 262t210.5 174t259 60q207 0 322 -137t75 -359q-3 -11 -9.5 -42t-9.5 -44h-729q-6 -95 57 -150t171 -55q76 0 148.5 32t113.5 91q115 -69 172 -102q-82 -116 -213.5 -173.5t-274.5 -57.5q-209 0 -328 140.5t-79 360.5zM426 565h492q4 96 -53 149.5 t-152 53.5q-100 0 -177.5 -53.5t-109.5 -149.5zM483 1448h262l156 -334h-194z" />
<glyph unicode="&#xe9;" horiz-adv-x="1132" d="M164 481q27 148 114.5 262t210.5 174t259 60q207 0 322 -137t75 -359q-3 -11 -9.5 -42t-9.5 -44h-729q-6 -95 57 -150t171 -55q76 0 148.5 32t113.5 91q115 -69 172 -102q-82 -116 -213.5 -173.5t-274.5 -57.5q-209 0 -328 140.5t-79 360.5zM426 565h492q4 96 -53 149.5 t-152 53.5q-100 0 -177.5 -53.5t-109.5 -149.5zM659 1114l275 334h262l-342 -334h-195z" />
<glyph unicode="&#xea;" horiz-adv-x="1132" d="M164 481q27 148 114.5 262t210.5 174t259 60q207 0 322 -137t75 -359q-3 -11 -9.5 -42t-9.5 -44h-729q-6 -95 57 -150t171 -55q76 0 148.5 32t113.5 91q115 -69 172 -102q-82 -116 -213.5 -173.5t-274.5 -57.5q-209 0 -328 140.5t-79 360.5zM418 1120l280 334h252 l168 -334h-192l-131 180l-185 -180h-192zM426 565h492q4 96 -53 149.5t-152 53.5q-100 0 -177.5 -53.5t-109.5 -149.5z" />
<glyph unicode="&#xeb;" horiz-adv-x="1132" d="M164 481q27 148 114.5 262t210.5 174t259 60q207 0 322 -137t75 -359q-3 -11 -9.5 -42t-9.5 -44h-729q-6 -95 57 -150t171 -55q76 0 148.5 32t113.5 91q115 -69 172 -102q-82 -116 -213.5 -173.5t-274.5 -57.5q-209 0 -328 140.5t-79 360.5zM426 565h492q4 96 -53 149.5 t-152 53.5q-100 0 -177.5 -53.5t-109.5 -149.5zM481 1294q11 57 57.5 95t106.5 38q58 0 92.5 -38.5t24.5 -94.5q-10 -57 -57.5 -95t-104.5 -38q-60 0 -94.5 38t-24.5 95zM838 1294q11 57 57 95t106 38t93.5 -38t23.5 -95q-11 -57 -56.5 -95t-105.5 -38t-94 38t-24 95z" />
<glyph unicode="&#xec;" horiz-adv-x="530" d="M141 0l168 956h248l-168 -956h-248zM162 1448h262l156 -334h-195z" />
<glyph unicode="&#xed;" horiz-adv-x="530" d="M141 0l168 956h248l-168 -956h-248zM336 1114l274 334h262l-342 -334h-194z" />
<glyph unicode="&#xee;" horiz-adv-x="530" d="M113 1120l280 334h252l168 -334h-192l-132 180l-184 -180h-192zM141 0l166 956h248l-166 -956h-248z" />
<glyph unicode="&#xef;" horiz-adv-x="530" d="M141 0l168 956h248l-168 -956h-248zM174 1294q10 57 58 95t108 38q58 0 91.5 -38.5t23.5 -94.5q-10 -57 -57.5 -95t-104.5 -38q-60 0 -94.5 38t-24.5 95zM530 1294q10 57 58 95t108 38t93 -38t22 -95t-56.5 -95t-105.5 -38t-94.5 38t-24.5 95z" />
<glyph unicode="&#xf0;" d="M164 479q36 202 184.5 336t333.5 146q37 3 90 -7l-100 156l-189 -88l-45 98l176 84l-116 207h252l65 -115l178 80l58 -88l-181 -84l248 -428q70 -118 39 -297q-27 -147 -114.5 -262t-210.5 -176t-259 -61q-208 0 -328.5 139.5t-80.5 359.5zM410 479q-20 -114 41 -185 t167 -71q108 0 192.5 70.5t104.5 185.5q20 113 -41.5 181.5t-168.5 68.5t-191 -68.5t-104 -181.5z" />
<glyph unicode="&#xf1;" d="M141 0l168 956h250l-24 -141q51 74 139.5 118t173.5 44q169 0 243 -105t39 -307l-98 -565h-250l90 520q18 102 -21 157.5t-122 55.5q-94 0 -160.5 -53t-89.5 -170l-88 -510h-250zM496 1155q15 70 43.5 122.5t63 80t68 40.5t66.5 13q29 0 55 -13t42 -29t34.5 -29t34.5 -13 q17 0 39 20t31 64h143q-31 -131 -100.5 -191.5t-141.5 -60.5q-30 0 -56.5 13t-41.5 29t-33.5 29t-33.5 13q-17 0 -39 -22t-31 -66h-143z" />
<glyph unicode="&#xf2;" horiz-adv-x="1159" d="M164 481q27 148 115 262t211.5 174t259.5 60q101 0 185.5 -35.5t141 -98.5t79.5 -157t3 -205q-27 -147 -114.5 -262t-210.5 -176t-259 -61q-101 0 -186 36t-141.5 100t-80 158.5t-3.5 204.5zM412 481q-20 -114 40 -185t166 -71q104 0 188.5 71t104.5 185 q20 113 -40 181.5t-166 68.5t-189.5 -68.5t-103.5 -181.5zM489 1448h263l155 -334h-194z" />
<glyph unicode="&#xf3;" horiz-adv-x="1159" d="M164 481q27 148 115 262t211.5 174t259.5 60q101 0 185.5 -35.5t141 -98.5t79.5 -157t3 -205q-27 -147 -114.5 -262t-210.5 -176t-259 -61q-101 0 -186 36t-141.5 100t-80 158.5t-3.5 204.5zM412 481q-20 -114 40 -185t166 -71q104 0 188.5 71t104.5 185 q20 113 -40 181.5t-166 68.5t-189.5 -68.5t-103.5 -181.5zM643 1114l275 334h262l-342 -334h-195z" />
<glyph unicode="&#xf4;" horiz-adv-x="1159" d="M164 481q27 148 115 262t211.5 174t259.5 60q101 0 185.5 -35.5t141 -98.5t79.5 -157t3 -205q-27 -147 -114.5 -262t-210.5 -176t-259 -61q-101 0 -186 36t-141.5 100t-80 158.5t-3.5 204.5zM412 481q-20 -114 40 -185t166 -71q104 0 188.5 71t104.5 185 q20 113 -40 181.5t-166 68.5t-189.5 -68.5t-103.5 -181.5zM426 1120l281 334h251l168 -334h-192l-131 180l-185 -180h-192z" />
<glyph unicode="&#xf5;" horiz-adv-x="1159" d="M164 481q27 148 115 262t211.5 174t259.5 60q101 0 185.5 -35.5t141 -98.5t79.5 -157t3 -205q-27 -147 -114.5 -262t-210.5 -176t-259 -61q-101 0 -186 36t-141.5 100t-80 158.5t-3.5 204.5zM412 481q-20 -114 40 -185t166 -71q104 0 188.5 71t104.5 185 q20 113 -40 181.5t-166 68.5t-189.5 -68.5t-103.5 -181.5zM494 1155q15 70 43.5 122.5t63 80t68 40.5t66.5 13q30 0 55.5 -13t40.5 -29t33 -29t35 -13t40 20.5t32 63.5h143q-31 -131 -100.5 -191.5t-141.5 -60.5q-30 0 -56.5 13t-41.5 29t-33.5 29t-33.5 13q-17 0 -39 -22 t-31 -66h-143z" />
<glyph unicode="&#xf6;" horiz-adv-x="1159" d="M164 481q27 148 115 262t211.5 174t259.5 60q101 0 185.5 -35.5t141 -98.5t79.5 -157t3 -205q-27 -147 -114.5 -262t-210.5 -176t-259 -61q-101 0 -186 36t-141.5 100t-80 158.5t-3.5 204.5zM412 481q-20 -114 40 -185t166 -71q104 0 188.5 71t104.5 185 q20 113 -40 181.5t-166 68.5t-189.5 -68.5t-103.5 -181.5zM487 1294q11 57 57.5 95t106.5 38q58 0 92.5 -38.5t24.5 -94.5q-10 -57 -57.5 -95t-104.5 -38q-60 0 -94.5 38t-24.5 95zM844 1294q11 57 57.5 95t106.5 38t93 -38t23 -95q-11 -57 -56 -95t-105 -38t-94.5 38 t-24.5 95z" />
<glyph unicode="&#xf7;" d="M184 414l33 186h932l-33 -186h-932zM451 135q10 62 62.5 104t115.5 42q62 0 98.5 -42t26.5 -104t-61.5 -103.5t-114.5 -41.5q-62 0 -99.5 41.5t-27.5 103.5zM584 885q10 62 62.5 102.5t115.5 40.5q62 0 98.5 -40.5t26.5 -102.5q-10 -64 -62 -105t-116 -41q-63 0 -99 40.5 t-26 105.5z" />
<glyph unicode="&#xf8;" horiz-adv-x="1159" d="M80 43l135 119q-85 127 -51 317q27 147 115 261.5t212 175.5t261 61q167 0 288 -100l125 108l80 -94l-125 -109q73 -136 41 -303q-27 -147 -115 -262t-211.5 -176t-259.5 -61q-167 0 -274 88l-141 -121zM414 479q-13 -88 10 -137l407 354q-59 35 -124 35 q-104 0 -188.5 -70.5t-104.5 -181.5zM506 250q52 -27 112 -27q106 0 189 70.5t106 185.5q12 67 -6 119z" />
<glyph unicode="&#xf9;" d="M197 391l100 565h252l-92 -520q-19 -108 25.5 -160.5t119.5 -52.5q87 0 157 54t89 169l90 510h250l-168 -956h-250l23 135q-51 -74 -133.5 -114.5t-159.5 -40.5q-174 0 -256.5 106.5t-46.5 304.5zM532 1448h261l157 -334h-196z" />
<glyph unicode="&#xfa;" d="M197 391l100 565h252l-92 -520q-19 -108 25.5 -160.5t119.5 -52.5q87 0 157 54t89 169l90 510h250l-168 -956h-250l23 135q-51 -74 -133.5 -114.5t-159.5 -40.5q-174 0 -256.5 106.5t-46.5 304.5zM618 1114l277 334h262l-342 -334h-197z" />
<glyph unicode="&#xfb;" d="M197 391l100 565h252l-92 -520q-19 -108 25.5 -160.5t119.5 -52.5q87 0 157 54t89 169l90 510h250l-168 -956h-250l23 135q-51 -74 -133.5 -114.5t-159.5 -40.5q-174 0 -256.5 106.5t-46.5 304.5zM416 1120l282 334h252l166 -334h-192l-129 180l-187 -180h-192z" />
<glyph unicode="&#xfc;" d="M197 391l100 565h252l-92 -520q-19 -108 25.5 -160.5t119.5 -52.5q87 0 157 54t89 169l90 510h250l-168 -956h-250l23 135q-51 -74 -133.5 -114.5t-159.5 -40.5q-174 0 -256.5 106.5t-46.5 304.5zM483 1300q10 57 58 95.5t108 38.5q57 0 90 -38.5t23 -95.5t-55.5 -95 t-102.5 -38q-61 0 -96 38t-25 95zM840 1300q10 57 58 95.5t108 38.5q57 0 90.5 -38.5t23.5 -95.5t-56 -95t-103 -38q-61 0 -96 38t-25 95z" />
<glyph unicode="&#xfd;" horiz-adv-x="1046" d="M86 -467l315 541l-215 882h267l131 -596l346 596h266l-846 -1423h-264zM541 1114l274 334h262l-342 -334h-194z" />
<glyph unicode="&#xfe;" horiz-adv-x="1234" d="M55 -465l346 1942h248l-112 -637q53 65 138.5 101t178.5 36q95 0 174.5 -35.5t132 -99.5t73.5 -159t1 -206q-27 -146 -112 -261t-202.5 -175.5t-244.5 -60.5q-92 0 -165 37t-103 102l-105 -584h-248zM475 481q-20 -118 41 -190t168 -72q106 0 190.5 73t104.5 189 q20 113 -39 184.5t-164 71.5q-66 0 -129 -29t-111 -88.5t-61 -138.5z" />
<glyph unicode="&#xff;" horiz-adv-x="1132" d="M162 473q3 11 9 42.5t9 43.5h729q6 95 -56.5 150t-170.5 55q-76 0 -148.5 -32t-113.5 -91q-115 69 -172 102q82 116 213.5 174t273.5 58q209 0 328.5 -141t79.5 -361q-27 -148 -114.5 -262t-210.5 -174t-259 -60q-207 0 -322 137t-75 359zM389 389q-4 -96 53 -149.5 t152 -53.5q100 0 177.5 53.5t109.5 149.5h-492z" />
<glyph unicode="&#x152;" horiz-adv-x="2252" d="M213 702q36 197 159 363.5t304 264t377 97.5q134 0 243 -48t181 -140l30 172h871l-43 -237h-611l-61 -363h535l-44 -233h-534l-61 -340h630l-39 -238h-890l26 166q-106 -89 -231.5 -137.5t-257.5 -48.5q-196 0 -342.5 97t-211.5 263t-30 362zM475 702q-32 -193 73 -327.5 t294 -134.5q128 0 244 63t194.5 171.5t99.5 236.5q19 125 -21.5 229.5t-132.5 165.5t-216 61q-125 0 -240.5 -62t-194.5 -169t-100 -234z" />
<glyph unicode="&#x153;" horiz-adv-x="1882" d="M164 479q27 147 115 261.5t211.5 175.5t259.5 61q110 0 201 -43t145 -121q178 164 403 164q208 0 313 -126t84 -331q-1 -7 -6.5 -53.5t-11.5 -71.5h-731q-4 -96 58 -150.5t169 -54.5q76 0 148.5 32t113.5 91l174 -102q-86 -117 -216.5 -174t-270.5 -57q-112 0 -202 42.5 t-146 122.5q-82 -78 -187 -121.5t-215 -43.5q-208 0 -328.5 139.5t-80.5 359.5zM412 479q-20 -114 40 -185t166 -71q104 0 188.5 71t104.5 185q20 112 -40.5 182t-165.5 70q-104 0 -188.5 -70.5t-104.5 -181.5zM1176 565h491q4 96 -52.5 149.5t-152.5 53.5q-99 0 -175 -53 t-111 -150z" />
<glyph unicode="&#x178;" horiz-adv-x="1318" d="M231 1411h312l268 -543l461 543h313l-680 -772l-112 -639h-269l113 643zM651 1749q11 57 57.5 95t106.5 38q58 0 92.5 -38.5t24.5 -94.5t-58 -94.5t-106 -38.5q-60 0 -93.5 38t-23.5 95zM1008 1749q11 57 57 95t106 38t93.5 -38t23.5 -95q-11 -57 -57.5 -95t-106.5 -38 t-93 38t-23 95z" />
<glyph unicode="&#x2c6;" horiz-adv-x="1191" d="M442 1120l281 334h252l168 -334h-193l-131 180l-184 -180h-193z" />
<glyph unicode="&#x2dc;" horiz-adv-x="903" d="M367 1155q15 70 43.5 122.5t63 80t68 40.5t66.5 13q29 0 55 -13t42 -29t34.5 -29t34.5 -13q17 0 39 20t31 64h143q-31 -131 -100.5 -191.5t-141.5 -60.5q-30 0 -56.5 13t-41.5 29t-33.5 29t-33.5 13q-16 0 -38.5 -22t-31.5 -66h-143z" />
<glyph unicode="&#x2000;" horiz-adv-x="1017" />
<glyph unicode="&#x2001;" horiz-adv-x="2034" />
<glyph unicode="&#x2002;" horiz-adv-x="1017" />
<glyph unicode="&#x2003;" horiz-adv-x="2034" />
<glyph unicode="&#x2004;" horiz-adv-x="678" />
<glyph unicode="&#x2005;" horiz-adv-x="508" />
<glyph unicode="&#x2006;" horiz-adv-x="339" />
<glyph unicode="&#x2007;" horiz-adv-x="339" />
<glyph unicode="&#x2008;" horiz-adv-x="254" />
<glyph unicode="&#x2009;" horiz-adv-x="406" />
<glyph unicode="&#x200a;" horiz-adv-x="113" />
<glyph unicode="&#x2010;" horiz-adv-x="976" d="M197 391l36 209h719l-37 -209h-718z" />
<glyph unicode="&#x2011;" horiz-adv-x="976" d="M197 391l36 209h719l-37 -209h-718z" />
<glyph unicode="&#x2012;" horiz-adv-x="976" d="M197 391l36 209h719l-37 -209h-718z" />
<glyph unicode="&#x2013;" horiz-adv-x="1267" d="M193 371l38 221h1010l-39 -221h-1009z" />
<glyph unicode="&#x2014;" horiz-adv-x="1699" d="M193 371l38 221h1442l-39 -221h-1441z" />
<glyph unicode="&#x2018;" horiz-adv-x="546" d="M266 909q19 89 65.5 180t103 163t107 124.5t93.5 85.5l104 -55q-47 -52 -79.5 -94t-72.5 -105t-67 -138.5t-41 -160.5h-213z" />
<glyph unicode="&#x2019;" horiz-adv-x="542" d="M246 918q46 51 79.5 94t71 104.5t65 136t42.5 160.5h211q-17 -88 -63 -180t-102.5 -163.5t-109.5 -124.5t-96 -83z" />
<glyph unicode="&#x201a;" horiz-adv-x="512" d="M-25 -158q48 56 78 95.5t70 103.5t67.5 139t42.5 160h211q-17 -88 -63 -180t-103 -163.5t-110 -124.5t-96 -83z" />
<glyph unicode="&#x201c;" horiz-adv-x="882" d="M268 911q17 88 63.5 180t103.5 164t109 124.5t93 82.5l102 -55q-49 -55 -80.5 -95.5t-70.5 -103t-66.5 -137t-42.5 -160.5h-211zM602 911q37 167 154 323.5t215 227.5l104 -55q-49 -55 -80 -95t-71.5 -103.5t-67.5 -138t-41 -159.5h-213z" />
<glyph unicode="&#x201d;" horiz-adv-x="874" d="M246 915q97 107 162 221.5t94 276.5h211q-17 -88 -63 -180t-102.5 -163.5t-109 -125t-94.5 -82.5zM580 915q46 51 79 94t71 105.5t65 137.5t41 161h213q-17 -88 -63.5 -180t-103 -164t-109.5 -125t-95 -82z" />
<glyph unicode="&#x201e;" horiz-adv-x="845" d="M-23 -158q49 59 77.5 96.5t69 102.5t67.5 139t42 160h211q-17 -88 -63 -180t-103 -163.5t-110 -124.5t-96 -83zM307 -158q47 53 79.5 95t71.5 104.5t66.5 137.5t42.5 161h211q-14 -71 -47.5 -145.5t-74.5 -135.5t-88 -116.5t-87 -93.5t-73 -60z" />
<glyph unicode="&#x2022;" horiz-adv-x="950" d="M240 487q24 133 132.5 220.5t241.5 87.5t211 -87.5t54 -220.5t-132.5 -220t-242.5 -87q-132 0 -210 87.5t-54 219.5z" />
<glyph unicode="&#x2026;" horiz-adv-x="1660" d="M139 135q12 66 68 111t123 45t106 -44.5t27 -111.5t-67 -111t-122 -44t-107 44.5t-28 110.5zM692 135q12 67 67 111.5t122 44.5t107 -44.5t28 -111.5q-12 -66 -68 -110.5t-123 -44.5t-106 44t-27 111zM1243 135q12 66 68 111t123 45t106 -44.5t27 -111.5t-67 -111 t-122 -44t-107 44.5t-28 110.5z" />
<glyph unicode="&#x202f;" horiz-adv-x="406" />
<glyph unicode="&#x2039;" horiz-adv-x="659" d="M166 477l358 424h201l-358 -424l208 -424h-200z" />
<glyph unicode="&#x203a;" horiz-adv-x="659" d="M100 53l357 424l-205 424h201l204 -424l-356 -424h-201z" />
<glyph unicode="&#x205f;" horiz-adv-x="508" />
<glyph unicode="&#x20ac;" horiz-adv-x="1710" d="M188 520l23 123h991l-22 -123h-478q30 -133 126 -213t239 -80q113 0 217 51t184 140l179 -152q-118 -134 -280 -210t-343 -76q-250 0 -413.5 151.5t-180.5 388.5h-242zM231 758l23 123h240q100 239 316.5 392.5t469.5 153.5q177 0 312 -73.5t208 -204.5l-237 -150 q-49 83 -134 132t-194 49q-146 0 -272.5 -82t-196.5 -217h479l-22 -123h-992z" />
<glyph unicode="&#x2122;" horiz-adv-x="1738" d="M352 1270l25 141h774l149 -493l318 493h137l-43 -758h-158l31 488l-258 -404h-119l-116 404l-146 -488h-158l185 617h-219l-111 -617h-160l111 617h-242z" />
<glyph unicode="&#x25fc;" horiz-adv-x="952" d="M0 0v952h952v-952h-952z" />
</font>
</defs>
</svg>
